<?xml version="1.0" encoding="UTF-8"?>
<svg width="245px" height="31px" viewBox="0 0 245 31" version="1.1" xmlns="http://www.w3.org/2000/svg" xmlns:xlink="http://www.w3.org/1999/xlink">
    <title>Group</title>
    <g id="Page-1" stroke="none" stroke-width="1" fill="none" fill-rule="evenodd">
        <g id="Artboard" transform="translate(-20.000000, -22.000000)">
            <g id="Group" transform="translate(20.880000, 22.640000)">
                <path d="M14.28,28.72 C15.6133333,28.72 16.9133333,28.5666667 18.18,28.26 C19.4466667,27.9533333 20.6333333,27.48 21.74,26.84 C22.8466667,26.2 23.8266667,25.3733333 24.68,24.36 C25.5333333,23.3466667 26.2266667,22.1333333 26.76,20.72 C27.2133333,19.44 27.4866667,18.1466667 27.58,16.84 C27.6733333,15.5333333 27.68,14.2133333 27.6,12.88 L27.6,12.88 L14.48,12.88 L14.48,17.92 L22.12,17.92 C21.8266667,18.96 21.4333333,19.8266667 20.94,20.52 C20.4466667,21.2133333 19.8666667,21.7666667 19.2,22.18 C18.5333333,22.5933333 17.7866667,22.88 16.96,23.04 C16.1333333,23.2 15.24,23.28 14.28,23.28 C13.0266667,23.28 11.8933333,23.0666667 10.88,22.64 C9.86666667,22.2133333 9.00666667,21.6066667 8.3,20.82 C7.59333333,20.0333333 7.04666667,19.0933333 6.66,18 C6.27333333,16.9066667 6.08,15.6933333 6.08,14.36 C6.08,13.1066667 6.26,11.9333333 6.62,10.84 C6.98,9.74666667 7.51333333,8.8 8.22,8 C8.92666667,7.2 9.78666667,6.56666667 10.8,6.1 C11.8133333,5.63333333 12.9733333,5.4 14.28,5.4 C15.88,5.4 17.2466667,5.69333333 18.38,6.28 C19.5133333,6.86666667 20.4266667,7.84 21.12,9.2 L21.12,9.2 L27,9.2 C26.6,7.57333333 25.9733333,6.18 25.12,5.02 C24.2666667,3.86 23.2666667,2.90666667 22.12,2.16 C20.9733333,1.41333333 19.7266667,0.866666667 18.38,0.52 C17.0333333,0.173333333 15.6666667,0 14.28,0 C12.44,0 10.66,0.313333333 8.94,0.94 C7.22,1.56666667 5.7,2.48666667 4.38,3.7 C3.06,4.91333333 2,6.41333333 1.2,8.2 C0.4,9.98666667 0,12.04 0,14.36 C0,16.68 0.4,18.7333333 1.2,20.52 C2,22.3066667 3.06,23.8066667 4.38,25.02 C5.7,26.2333333 7.21333333,27.1533333 8.92,27.78 C10.6266667,28.4066667 12.4133333,28.72 14.28,28.72 Z M83.8,28.32 L83.8,19.08 L88.8,19.08 L94.56,28.32 L100.96,28.32 L100.96,27.48 L94.64,18.16 C96.24,17.3866667 97.4733333,16.2666667 98.34,14.8 C99.2066667,13.3333333 99.64,11.7066667 99.64,9.92 C99.64,8.69333333 99.4266667,7.5 99,6.34 C98.5733333,5.18 97.94,4.15333333 97.1,3.26 C96.26,2.36666667 95.2266667,1.65333333 94,1.12 C92.7733333,0.586666667 91.36,0.32 89.76,0.32 C87.76,0.293333333 85.7666667,0.286666667 83.78,0.3 C81.7933333,0.313333333 79.8,0.32 77.8,0.32 L77.8,0.32 L77.8,28.32 L83.8,28.32 Z M89.72,14.16 L83.72,14.16 L83.72,5.56 L89.72,5.56 C91,5.56 92.0066667,5.97333333 92.74,6.8 C93.4733333,7.62666667 93.84,8.62666667 93.84,9.8 C93.8666667,11 93.5,12.0266667 92.74,12.88 C91.98,13.7333333 90.9733333,14.16 89.72,14.16 L89.72,14.16 Z M126.88,28.36 L126.88,22.92 L115.44,22.92 L115.44,16.52 L125.84,16.52 L125.84,11.28 L115.44,11.28 L115.44,5.6 L126.56,5.6 L126.56,0.36 L109.4,0.36 L109.4,28.36 L126.88,28.36 Z M142.32,28.32 L142.32,20.4 L148.28,20.4 C149.88,20.4 151.3,20.1266667 152.54,19.58 C153.78,19.0333333 154.82,18.3066667 155.66,17.4 C156.5,16.4933333 157.14,15.4466667 157.58,14.26 C158.02,13.0733333 158.24,11.8266667 158.24,10.52 C158.24,9.21333333 158.026667,7.94 157.6,6.7 C157.173333,5.46 156.54,4.37333333 155.7,3.44 C154.86,2.50666667 153.82,1.75333333 152.58,1.18 C151.34,0.606666667 149.906667,0.32 148.28,0.32 C146.28,0.32 144.286667,0.313333333 142.3,0.3 C140.313333,0.286666667 138.32,0.293333333 136.32,0.32 L136.32,0.32 L136.32,28.32 L142.32,28.32 Z M148.28,15.28 L142.2,15.28 L142.2,5.56 C143.213333,5.56 144.226667,5.55333333 145.24,5.54 C146.253333,5.52666667 147.266667,5.53333333 148.28,5.56 C148.946667,5.56 149.54,5.68666667 150.06,5.94 C150.58,6.19333333 151.02,6.54 151.38,6.98 C151.74,7.42 152.02,7.93333333 152.22,8.52 C152.42,9.10666667 152.52,9.72 152.52,10.36 C152.52,11.0266667 152.42,11.66 152.22,12.26 C152.02,12.86 151.733333,13.38 151.36,13.82 C150.986667,14.26 150.54,14.6133333 150.02,14.88 C149.5,15.1466667 148.92,15.28 148.28,15.28 L148.28,15.28 Z M184.16,28.36 L184.16,23 L172.48,23 L172.48,0.36 L166.48,0.36 L166.48,28.36 L184.16,28.36 Z M194.8,28.36 L196.96,23.72 L208.6,23.72 L210.8,28.36 L217,28.36 L217,27.56 L204.2,0.12 L201.44,0.12 L188.56,27.56 L188.56,28.36 L194.8,28.36 Z M206.68,18.68 L198.92,18.68 L202.8,9.44 L206.68,18.68 Z M234.24,28.36 L234.24,17.16 L243.84,1.24 L243.84,0.36 L237.48,0.36 L234.12,6.12 L231.36,11.68 L231.16,11.68 L228.52,6.32 L225.04,0.36 L218.6,0.36 L218.6,1.24 L228.24,17.16 L228.24,28.36 L234.24,28.36 Z" id="GREPLAY" fill="#333333" fill-rule="nonzero"></path>
                <path d="M62.809289,13.5827367 C62.701633,13.2734764 62.4942298,13.044756 62.1870791,12.8965754 C61.8799285,12.7483949 61.5700254,12.727548 61.2573699,12.8340348 L53.176428,15.5863104 C52.6713692,15.7583277 52.3994377,16.1170418 52.3606336,16.6624529 C52.3176889,17.1959693 52.5447165,17.5776644 53.0417164,17.807538 L56.3880418,19.4219265 C55.1755744,21.6576462 53.360807,23.1871186 50.9437396,24.0103439 C49.6931176,24.4362913 48.415768,24.6019183 47.1116908,24.5072247 C45.8076135,24.4125311 44.597854,24.0961195 43.4824122,23.55799 C42.3669704,23.0198606 41.370095,22.2717116 40.4917861,21.3135432 C39.6134772,20.3553748 38.9590109,19.2577701 38.5283872,18.020729 C38.0977636,16.7836878 37.9303183,15.5202093 38.0260515,14.2302934 C38.1217847,12.9403775 38.44167,11.7437551 38.9857073,10.6404262 C39.5297446,9.53709724 40.2861071,8.55104723 41.2547948,7.68227612 C42.2234824,6.81350501 43.3331372,6.16614575 44.5837592,5.74019834 C46.6160199,5.04803379 48.6498474,5.01725291 50.6852418,5.6478557 C52.7206363,6.27845848 54.3743533,7.45483338 55.6463931,9.17698039 C55.8258036,9.42188725 56.0537989,9.49724072 56.3303787,9.40304082 L59.9199042,8.18048983 C60.1123076,8.11495946 60.2377791,7.9923961 60.2963186,7.81279975 C60.3627428,7.61721313 60.3489328,7.44230091 60.2548886,7.28806309 C59.0612982,5.36623381 57.5285033,3.81272621 55.6565041,2.62754027 C53.7845048,1.44235433 51.7441765,0.720297866 49.5355192,0.461370878 C47.3268619,0.202443889 45.1462769,0.439540909 42.9937641,1.17266194 C41.1178311,1.81158305 39.4523634,2.78462073 37.9973607,4.09177496 C36.5423581,5.39892919 35.4087999,6.87600543 34.5966862,8.52300368 C33.7845726,10.1700019 33.3057302,11.9629368 33.1601593,13.9018082 C33.0145884,15.8406796 33.2647706,17.7378962 33.9107062,19.5934579 C34.5566417,21.4490195 35.5403618,23.0964015 36.8618667,24.5356039 C38.1833715,25.9748062 39.6766638,27.0960548 41.3417436,27.8993495 C43.0068234,28.7026442 44.819442,29.1762867 46.7795993,29.3202768 C48.7397566,29.4642669 50.6578018,29.2168015 52.5337347,28.5778803 C54.3014407,27.9758201 55.897125,27.0631382 57.3207876,25.8398349 C58.7444501,24.6165315 59.8905293,23.185084 60.7590251,21.5454924 L63.9051497,23.0484512 C64.3822398,23.2984108 64.8321065,23.2383255 65.2547497,22.8681952 C65.6533425,22.5062563 65.7656861,22.0754997 65.5917804,21.5759254 L62.809289,13.5827367 Z" id="logo_small" stroke="#4A90E2" fill="#4A90E2"></path>
            </g>
        </g>
    </g>
</svg>