<?xml version="1.0" encoding="UTF-8"?>
<svg width="205px" height="293px" viewBox="0 0 205 293" version="1.1" xmlns="http://www.w3.org/2000/svg" xmlns:xlink="http://www.w3.org/1999/xlink">
    <title>Group</title>
    <g id="Page-3" stroke="none" stroke-width="1" fill="none" fill-rule="evenodd">
        <g id="Artboard" transform="translate(-189.000000, -37.000000)">
            <g id="Group" transform="translate(190.000000, 37.000000)">
                <path d="M69.3184402,154.005038 C69.0670855,153.279876 68.5828411,152.743566 67.865707,152.396108 C67.1485728,152.04865 66.4250123,151.999768 65.6950254,152.249461 L46.8276727,158.703073 C45.6484632,159.106423 45.0135586,159.947546 44.9229589,161.226441 C44.8226917,162.477445 45.3527549,163.372454 46.5131485,163.911469 L54.3261365,167.696931 C51.4952722,172.939308 47.2581601,176.525658 41.6148002,178.455979 C38.6948527,179.454752 35.7125017,179.843119 32.667747,179.621079 C29.6229924,179.399038 26.7984504,178.657108 24.194121,177.395287 C21.5897917,176.133466 19.2622908,174.379186 17.2116185,172.132446 C15.1609461,169.885706 13.6329007,167.312013 12.6274822,164.411364 C11.6220636,161.510716 11.2311131,158.548077 11.4546306,155.523447 C11.6781481,152.498816 12.425015,149.692943 13.6952313,147.105827 C14.9654476,144.518711 16.7313999,142.206593 18.9930882,140.169475 C21.2547765,138.132357 23.8455944,136.614411 26.7655418,135.615637 C31.5104564,133.992631 36.2590293,133.920455 41.0112606,135.39911 C45.7634918,136.877765 49.6245842,139.636161 52.5945378,143.674299 C53.0134249,144.248563 53.5457473,144.425254 54.1915049,144.204372 L62.5723156,141.3377 C63.0215383,141.184043 63.3144886,140.896653 63.4511665,140.47553 C63.6062534,140.016914 63.5740098,139.606775 63.3544357,139.245113 C60.5676454,134.738755 56.9888818,131.096048 52.6181449,128.316991 C48.247408,125.537934 43.4836572,123.844836 38.3268925,123.237697 C33.1701278,122.630558 28.078906,123.18651 23.0532272,124.905552 C18.6733061,126.403712 14.7847781,128.685318 11.3876435,131.750369 C7.99050879,134.81542 5.34388146,138.278909 3.44776148,142.140836 C1.5516415,146.002763 0.433642274,150.206886 0.0937637908,154.753205 C-0.246114692,159.299525 0.338009967,163.74817 1.84613777,168.099143 C3.35426557,172.450115 5.65105171,176.312942 8.73649619,179.687623 C11.8219407,183.062304 15.308474,185.691439 19.196096,187.575026 C23.0837181,189.458614 27.3158131,190.569224 31.8923811,190.906856 C36.468949,191.244488 40.9471936,190.664224 45.3271148,189.166064 C49.4543482,187.754337 53.1799459,185.614255 56.5039078,182.74582 C59.8278698,179.877384 62.5037311,176.520887 64.5314917,172.676327 L71.8770517,176.200506 C72.9909599,176.786618 74.0413069,176.645729 75.0280928,175.777837 C75.9587258,174.929153 76.2210251,173.919103 75.8149907,172.747687 C72.5667154,163.376362 72.5667154,163.376362 69.3184402,154.005038 Z" id="logo_small" stroke="#2392E7" fill="#2392E7"></path>
                <line x1="26.2970057" y1="111.207154" x2="75.4017692" y2="24.0938814" id="Line" stroke="#979797" stroke-linecap="square" transform="translate(50.849387, 67.650518) rotate(-11.409463) translate(-50.849387, -67.650518) "></line>
                <g id="Group-2" transform="translate(130.364808, 110.929795) scale(-1, 1) translate(-130.364808, -110.929795) translate(57.969234, 92.000000)" stroke="#979797" stroke-linecap="square">
                    <line x1="106.13729" y1="39.4040992" x2="138.585244" y2="-1.38422147" id="Line" transform="translate(122.532862, 19.115779) rotate(96.590537) translate(-122.532862, -19.115779) "></line>
                    <line x1="104.5" y1="0.5" x2="0.260382208" y2="0.5" id="Line-6"></line>
                </g>
                <line x1="25.935425" y1="287.149887" x2="75.0401885" y2="200.036615" id="Line" stroke="#979797" stroke-linecap="square" transform="translate(50.487807, 243.593251) rotate(132.590537) translate(-50.487807, -243.593251) "></line>
                <line x1="67.417951" y1="221.477975" x2="91.9703328" y2="177.921339" id="Line" stroke="#979797" stroke-linecap="square" transform="translate(79.694142, 199.699657) rotate(105.590537) translate(-79.694142, -199.699657) "></line>
                <text id="audit" font-family="Intro-Bold-Caps, Intro Bold Caps" font-size="15" font-weight="bold" letter-spacing="1.5" fill="#4A4A4A">
                    <tspan x="145.47" y="214">audit</tspan>
                </text>
                <text id="analytics" font-family="Intro-Bold-Caps, Intro Bold Caps" font-size="15" font-weight="bold" letter-spacing="1.5" fill="#4A4A4A">
                    <tspan x="100.905" y="89">analytics</tspan>
                </text>
                <text id="monitoring" font-family="Intro-Bold-Caps, Intro Bold Caps" font-size="15" font-weight="bold" letter-spacing="1.5" fill="#4A4A4A">
                    <tspan x="82.4175" y="14">monitoring</tspan>
                </text>
                <text id="integration" font-family="Intro-Bold-Caps, Intro Bold Caps" font-size="15" font-weight="bold" letter-spacing="1.5" fill="#4A4A4A">
                    <tspan x="81.64" y="287">integration</tspan>
                </text>
                <text id="logging" font-family="Intro-Bold-Caps, Intro Bold Caps" font-size="15" font-weight="bold" letter-spacing="1.5" fill="#4A4A4A">
                    <tspan x="117.6225" y="151">logging</tspan>
                </text>
                <line x1="77.4059844" y1="171.412717" x2="200.782046" y2="141.459298" id="Line-3" stroke="#979797" stroke-linecap="square" transform="translate(139.405984, 156.088157) rotate(13.780190) translate(-139.405984, -156.088157) "></line>
                <line x1="97.5" y1="217.5" x2="202.5" y2="217.5" id="Line-4" stroke="#979797" stroke-linecap="square"></line>
                <line x1="66.5" y1="19.5" x2="202.5" y2="19.5" id="Line-5" stroke="#979797" stroke-linecap="square"></line>
                <line x1="202.5" y1="291.5" x2="66.5" y2="291.5" id="Line-7" stroke="#979797" stroke-linecap="square"></line>
            </g>
        </g>
    </g>
</svg>